<svg width="124" height="130" viewBox="0 0 124 130" fill="none" xmlns="http://www.w3.org/2000/svg">
<path fill-rule="evenodd" clip-rule="evenodd" d="M47.812 4.2643C48.876 3.19971 50.1644 1.80461 50.6752 1.16432C51.186 0.524023 51.672 0 51.7551 0C51.8445 0 51.9064 1.27786 51.9064 3.11957V6.23898L50.5503 7.47219C45.341 12.209 39.4596 15.0642 33.0157 15.9846C31.1392 16.2526 26.2903 16.2937 24.4662 16.057C20.8762 15.5911 16.7906 14.431 13.5879 12.9678L12.4881 12.4654L11.8873 13.1154C11.2606 13.7934 8.32697 17.2279 7.40028 18.3684C7.10607 18.7307 6.81668 19.064 6.75719 19.1091C6.5789 19.2445 5.44336 20.6839 5.44336 20.7746C5.44336 20.8207 5.86957 21.0856 6.39063 21.3629C8.92857 22.7142 10.9538 27.0718 11.8747 33.163C12.6824 38.5065 12.758 41.3644 12.3855 52.5148C12.2147 57.6251 12.1099 59.1221 11.7815 61.144C11.5628 62.4895 11.3508 63.6819 11.3101 63.7939C11.2696 63.9058 10.9135 65.9124 10.5188 68.2531C9.54722 74.0142 9.13484 75.98 8.36266 78.5312C7.2998 82.0425 6.99192 84.1572 6.99481 87.9261C6.99706 90.7473 7.04706 91.3725 7.40574 93.0651C8.64963 98.9335 12.1713 104.132 17.3837 107.794C18.0479 108.261 19.7027 109.443 21.0607 110.422C31.4418 117.899 40.8808 122.841 48.6909 124.889C49.8847 125.202 50.9881 125.57 51.1427 125.707C51.3818 125.919 51.4241 126.253 51.4241 127.93C51.4241 129.015 51.3614 129.942 51.2848 129.989C51.2081 130.036 51.0133 129.929 50.8517 129.751C49.7869 128.575 44.0937 125.972 36.6331 123.249C31.0173 121.199 23.2821 117.28 18.2247 113.923C16.5346 112.801 15.8722 112.363 15.236 111.891C14.7852 111.556 14.3475 111.203 13.5665 110.577C10.7041 108.282 7.79626 105.126 6.18918 102.569C3.4305 98.1793 2.1506 92.2138 2.69867 86.2989C2.90542 84.0683 3.22648 82.3186 4.28661 77.648C4.64738 76.0581 5.12922 73.8178 5.35735 72.6695C5.78581 70.5122 7.16169 63.8889 7.59256 61.9096C8.99851 55.4498 9.39353 42.328 8.40735 34.8492C7.82648 30.4451 6.53725 27.2547 4.11153 24.2188C3.21989 23.1028 1.21909 21.2198 0.430503 20.7546C-0.140075 20.4178 -0.14313 20.0948 0.419249 19.5832C0.662497 19.362 1.62102 18.3193 2.54947 17.2658C3.47793 16.2124 4.99963 14.5164 5.93115 13.4968C6.86266 12.4773 7.80317 11.4195 8.02118 11.146C8.89963 10.044 11.6263 7.06621 11.757 7.06621C11.8339 7.06621 12.1992 7.27209 12.5688 7.5239C15.3192 9.39677 20.1845 11.4196 23.4498 12.0479C25.1599 12.3769 27.863 12.6871 29.0209 12.6871C31.4882 12.6871 35.5155 11.9411 37.6556 11.0878C41.5887 9.5193 44.5445 7.53354 47.812 4.2643ZM31.8712 40.698C32.1371 38.4378 33.9493 36.6889 36.5098 36.2214C38.0025 35.949 38.9834 35.9312 40.667 36.1459C42.1387 36.3335 44.1643 37.006 44.2967 37.351C44.4162 37.6619 43.231 40.6307 42.9874 40.6307C42.8752 40.6307 42.4305 40.4741 41.9992 40.2827C41.1 39.8834 39.5509 39.5203 38.7115 39.5121C37.7099 39.5023 36.6895 39.9464 36.4639 40.4902C36.2893 40.9114 36.3046 41.0269 36.5856 41.4038C36.8361 41.7396 37.2242 41.9193 38.3377 42.2153C42.7141 43.3782 43.804 43.9142 44.5701 45.2804C44.9853 46.0209 45.062 46.3309 45.0673 47.2879C45.0895 51.305 40.6151 53.421 34.8988 52.0967C33.8189 51.8467 32.4686 51.2925 31.9098 50.8701C31.6191 50.6506 31.6344 50.5828 32.3117 49.0896C32.6988 48.2358 33.1082 47.5371 33.2213 47.5368C33.3344 47.5365 33.8408 47.7415 34.3467 47.9925C35.6903 48.6589 36.7114 48.9017 38.1604 48.8991C40.0032 48.8959 40.8789 48.3418 40.5715 47.3739C40.4213 46.9016 39.6948 46.5848 37.3975 45.9896C36.2705 45.6976 34.9528 45.2717 34.4692 45.0432C32.7435 44.2277 31.6675 42.4282 31.8712 40.698ZM49.8163 44.2679C49.8163 39.912 49.8464 36.3181 49.8832 36.2813C49.92 36.2445 50.318 36.2394 50.7675 36.27L51.5848 36.3256V39.8457V43.3656L56.2874 43.3231L60.99 43.2805L60.9951 39.908C60.998 38.0531 61.0453 36.4632 61.1004 36.3749C61.1554 36.2866 61.5691 36.2394 62.0196 36.27L62.8389 36.3256V44.1472C62.8389 50.0165 62.7906 52.0169 62.6459 52.1614C62.4247 52.3824 61.5755 52.4146 61.2588 52.214C61.0919 52.1085 61.0491 51.3893 61.0633 48.9341C61.0733 47.2047 61.035 45.6045 60.9781 45.3782L60.8747 44.9668H56.2328H51.5909L51.5477 48.6203L51.5045 52.2739L51.0429 52.3265C50.789 52.3556 50.4093 52.336 50.1988 52.2833L49.8163 52.1875V44.2679ZM69.4305 44.1715C69.4305 39.1126 69.4872 36.3023 69.5903 36.2678C69.6782 36.2384 70.1123 36.2394 70.5549 36.27L71.3598 36.3256V44.1472C71.3598 50.0165 71.3115 52.0169 71.1668 52.1614C70.9298 52.3982 70.1614 52.4125 69.7414 52.1879C69.4405 52.027 69.4305 51.7683 69.4305 44.1715ZM94.6487 52.1936C94.4917 52.0718 94.3533 36.7494 94.5064 36.4634C94.6069 36.2758 94.8422 36.2281 95.4596 36.27L96.2794 36.3256V43.537V50.7482H100.513C102.842 50.7482 104.779 50.7806 104.819 50.8202C104.858 50.8597 104.863 51.1812 104.829 51.5343L104.768 52.1765L99.7601 52.2252C97.0057 52.252 94.7054 52.2377 94.6487 52.1936ZM78.1524 52.1338C77.9963 52.0249 77.9514 50.242 77.9514 44.1442V36.2946H83.2569H88.5623V37.0147V37.7348L84.1842 37.7775L79.8061 37.8203L79.7589 40.2292C79.7329 41.5541 79.7508 42.7995 79.7985 42.9966C79.885 43.3537 79.8996 43.3552 83.7818 43.3981L87.6781 43.4411V44.1638V44.8865L83.8273 44.9297C80.9925 44.9613 79.9432 45.0249 79.8506 45.1706C79.7036 45.4017 79.6786 49.8551 79.8212 50.3869L79.9181 50.7482H84.4815H89.0446V51.4646V52.181L83.699 52.2275C80.7588 52.253 78.263 52.2107 78.1524 52.1338ZM109.583 52.1994C109.319 52.1939 109.302 51.7057 109.302 44.2441V36.2946H113.258C117.504 36.2946 118.403 36.4138 119.909 37.1758C120.891 37.6728 122.172 38.8392 122.786 39.7961C124.039 41.746 124.354 44.5669 123.581 46.9085C122.725 49.5025 120.389 51.5033 117.623 52.0124C116.916 52.1425 112.168 52.253 109.583 52.1994ZM122.098 42.6833C121.653 40.6835 120.466 39.1977 118.627 38.3366C117.593 37.8525 117.548 37.8468 114.326 37.7735L111.07 37.6995V44.2238V50.7482L113.603 50.7455C116.47 50.7423 117.895 50.5094 119.12 49.8434C121.483 48.5585 122.736 45.5467 122.098 42.6833ZM69.6717 58.4635C70.3791 58.1708 71.3196 57.8777 71.7617 57.8125C72.2038 57.7473 72.7826 57.6874 73.0479 57.6795C73.9655 57.6521 75.9612 58.0993 76.7879 58.5178C77.7434 59.0014 78.7553 59.8386 78.7553 60.1455C78.7553 60.2609 78.5356 60.54 78.2672 60.7657L77.7791 61.176L77.0212 60.5951C75.4508 59.3915 73.8504 58.9556 72.1318 59.2636C68.3466 59.9421 66.0104 63.6315 66.9204 67.4937C67.2557 68.9169 67.6297 69.61 68.5739 70.5585C69.5089 71.4975 70.1971 71.8673 71.6377 72.2051C73.4617 72.6326 75.5712 72.2361 76.8426 71.2266C77.2313 70.9177 77.6263 70.6645 77.7204 70.6637C77.8144 70.6627 78.1038 70.8856 78.3634 71.1589L78.8356 71.6557L78.1131 72.281C77.6813 72.6549 76.9077 73.0824 76.1903 73.3437C75.1615 73.7185 74.7361 73.782 73.2151 73.7874C70.4818 73.7971 68.9821 73.2517 67.3794 71.6645C64.1474 68.4641 64.1287 63.2827 67.3376 60.0513C68.1842 59.1987 68.6326 58.8936 69.6717 58.4635ZM31.7369 61.2102C31.6284 60.8689 31.6405 59.3065 31.7583 58.4166L31.8382 57.8144H38.7373H45.6363V59.6613V61.5081H43.307H40.9778L40.9356 67.6509L40.8935 73.7937L39.0446 73.8402C38.0278 73.8659 37.0331 73.8465 36.834 73.7971L36.4723 73.7073V67.6077V61.5081H34.1519C32.0331 61.5081 31.8234 61.4823 31.7369 61.2102ZM50.0575 73.7937L50.0159 65.804L49.9741 57.8144H55.2811H60.5881V58.5371V59.2598H56.1668H51.7456V62.0702V64.8806L54.117 64.9129C55.4213 64.9306 57.1757 64.9487 58.0157 64.953L59.543 64.9609L59.5921 65.7237L59.6411 66.4866H55.6934H51.7456V69.3773V72.268H56.3168C60.5334 72.268 60.894 72.2899 60.9657 72.5491C61.0599 72.8895 61.0135 73.4156 60.8683 73.6503C60.7958 73.7675 59.0572 73.8178 55.4096 73.808L50.0575 73.7937ZM84.0993 66.0048C84.0762 61.7209 84.0921 58.1256 84.1344 58.0152C84.1819 57.8913 84.5215 57.8144 85.0204 57.8144H85.8292V61.3475V64.8806H90.572H95.3147V61.3475V57.8144H96.1186H96.9225V65.853V73.8916L96.1588 73.8427L95.3951 73.7937L95.3519 70.1401L95.3086 66.4866H90.572H85.8353L85.7921 70.1401L85.7488 73.7937H84.945H84.1411L84.0993 66.0048ZM31.7467 95.1397C31.6192 94.8079 31.6192 79.9201 31.7467 79.5883C31.8291 79.374 32.1824 79.3342 33.9975 79.3342H36.1508V82.3052V85.2763H39.0446H41.9385L41.9409 82.506C41.9424 80.9824 42.0022 79.643 42.0742 79.53C42.172 79.376 42.7282 79.3357 44.2823 79.3694L46.3598 79.4145L46.4014 87.4087L46.4432 95.4029L44.231 95.3581L42.0189 95.3135L41.9752 92.2183L41.9316 89.1232L39.0813 89.167L36.2311 89.2109L36.1874 92.3023L36.1438 95.3938H33.994C32.1821 95.3938 31.8291 95.3538 31.7467 95.1397ZM49.8188 84.6205C49.8175 81.8308 49.8646 79.5001 49.9236 79.4413C49.9824 79.3824 50.3754 79.3342 50.7966 79.3342H51.5625L51.618 84.9149C51.6709 90.2377 51.69 90.5369 52.0307 91.3871C52.8347 93.3936 54.9488 94.4344 57.2508 93.9571C58.8625 93.6227 59.9657 92.6657 60.5927 91.0577C60.7556 90.64 60.8347 89.0724 60.9009 84.9551L60.99 79.4145H61.7938H62.5977V84.7945C62.5977 90.0538 62.589 90.2011 62.208 91.3628C61.5639 93.3272 60.2827 94.6571 58.5276 95.1829C57.1543 95.5944 54.8286 95.5417 53.6027 95.0713C52.4503 94.6292 51.2252 93.5373 50.6834 92.4692C49.9183 90.961 49.8213 90.0801 49.8188 84.6205ZM66.9557 95.1397C66.8282 94.8079 66.8282 79.9201 66.9557 79.5883C67.0408 79.3668 67.5268 79.3342 70.7424 79.3342C74.9287 79.3342 76.1598 79.5181 77.3799 80.3253C78.4824 81.0548 78.9755 82.0032 78.9871 83.4159C78.9998 84.974 78.867 85.3381 77.9207 86.3376C77.4697 86.8138 77.1713 87.2034 77.2573 87.2034C77.6725 87.2034 78.9663 88.2757 79.3615 88.9471C79.7471 89.6022 79.8001 89.8584 79.7983 91.0577C79.7963 92.5215 79.5054 93.3293 78.7226 94.0453C77.5109 95.1534 76.1929 95.3885 71.176 95.3914C67.5636 95.3935 67.0413 95.3623 66.9557 95.1397ZM77.3057 83.767C77.3019 82.6139 76.8027 81.7937 75.7861 81.2709C75.0254 80.8795 74.8492 80.8583 72.0884 80.826C70.4938 80.8074 69.099 80.8315 68.9884 80.8795C68.8385 80.9447 68.7874 81.6829 68.7874 83.7785V86.5901L71.9627 86.5353C74.9998 86.4831 75.1691 86.4632 75.8551 86.0792C76.8533 85.5205 77.309 84.7941 77.3057 83.767ZM78.1122 91.0034C78.1122 89.6754 77.5397 88.8076 76.3945 88.3997C75.9512 88.2418 74.8106 88.1792 72.2842 88.174L68.7874 88.167V91.0715V93.976L72.2038 93.9221C75.5133 93.8699 75.6488 93.8548 76.5345 93.44C77.607 92.9378 78.1122 92.1576 78.1122 91.0034Z" fill="white"/>
<path d="M51.6652 8.60503C46.8361 12.9736 40.349 16.6645 35.5077 17.7982C35.1098 17.8913 34.3139 18.0799 33.7392 18.2172C31.1935 18.825 26.7493 18.9822 24.0125 18.5613C22.1537 18.2755 19.4776 17.5947 18.1443 17.0684C17.0543 16.6382 14.672 15.4625 13.9443 14.9956C13.7123 14.8467 13.4201 14.7642 13.2951 14.8121C13.0355 14.9116 9.12777 20.3187 9.03661 20.7045C8.99851 20.8655 9.27295 21.157 9.79047 21.5052C12.011 22.9991 13.5414 25.8609 14.4361 30.192C15.0254 33.044 15.1049 34.7601 15.0284 42.9593C14.9601 50.2789 14.8659 52.192 14.4509 54.6828C14.3627 55.2128 14.1427 56.7304 13.9623 58.0553C13.5723 60.9179 11.8297 70.9686 11.3866 72.9104C11.2152 73.6612 10.9226 75.1427 10.7363 76.2026C10.55 77.2625 10.1861 78.9608 9.92777 79.9766C8.21925 86.6953 8.43404 91.2305 10.7323 96.9704C11.5302 98.963 12.5303 100.409 14.3842 102.248C22.9057 110.703 35.8176 118.24 49.7717 122.905C50.3218 123.089 50.8221 123.189 50.8834 123.128C50.9795 123.032 51.1276 116.085 51.281 104.461C51.3043 102.69 51.2696 101.155 51.2035 101.048C51.1125 100.901 49.2664 100.854 43.5705 100.854C35.2369 100.854 35.075 100.838 33.1036 99.8031C31.7723 99.1042 30.2564 97.5872 29.4998 96.1968C28.3591 94.1003 28.4337 96.2284 28.4337 65.752C28.4337 47.8286 28.4905 37.9646 28.5969 37.4005C29.1239 34.6075 31.2797 32.0432 34.0979 30.8572L35.1057 30.4329L43.7051 30.3526L52.3045 30.2723L52.4077 29.5496C52.5747 28.3808 52.766 7.8687 52.6099 7.87352C52.5324 7.87593 52.1073 8.20515 51.6652 8.60503Z" fill="#02DFC2"/>
</svg>
